<svg width="12" height="10" viewBox="0 0 12 10" fill="none" xmlns="http://www.w3.org/2000/svg">
<path d="M9.54406 0.42976C9.7218 0.243682 9.95833 0.14081 10.2037 0.142852C10.4491 0.144894 10.6842 0.25169 10.8594 0.440705C11.0345 0.629719 11.1361 0.886169 11.1426 1.15594C11.149 1.42571 11.06 1.6877 10.8941 1.88663L5.85971 8.81023C5.77314 8.91277 5.66865 8.99505 5.55251 9.05216C5.43636 9.10928 5.31093 9.14005 5.18372 9.14264C5.05651 9.14523 4.93013 9.11959 4.81213 9.06724C4.69414 9.01489 4.58696 8.93692 4.497 8.83798L1.15837 5.16667C1.0654 5.0714 0.990823 4.95652 0.939101 4.82887C0.887379 4.70122 0.859567 4.56342 0.857325 4.4237C0.855083 4.28397 0.878457 4.14518 0.926052 4.01561C0.973647 3.88603 1.04449 3.76832 1.13435 3.66951C1.22421 3.57069 1.33125 3.49279 1.44908 3.44046C1.56692 3.38812 1.69313 3.36241 1.8202 3.36488C1.94726 3.36734 2.07257 3.39793 2.18865 3.4548C2.30473 3.51168 2.40921 3.59368 2.49584 3.69592L5.13798 6.59995L9.52008 0.460286C9.52797 0.449603 9.53514 0.439412 9.54406 0.42976Z" fill="white"/>
</svg>
